<mxfile host="app.diagrams.net" modified="2023-08-25T14:14:30.502Z" agent="Mozilla/5.0 (X11; Linux x86_64; rv:103.0) Gecko/20100101 Firefox/103.0" etag="bj184ms9HSBiq2TKJ_A5" version="21.6.9" type="github">
  <diagram name="Página-1" id="0wu6KfNBymWW52zroNZu">
    <mxGraphModel dx="1434" dy="673" grid="1" gridSize="10" guides="1" tooltips="1" connect="1" arrows="1" fold="1" page="1" pageScale="1" pageWidth="827" pageHeight="1169" math="0" shadow="0">
      <root>
        <mxCell id="0" />
        <mxCell id="1" parent="0" />
        <mxCell id="zObjcB0tpamJJj4wUwwc-39" value="" style="edgeStyle=orthogonalEdgeStyle;rounded=0;orthogonalLoop=1;jettySize=auto;html=1;" edge="1" parent="1" target="zObjcB0tpamJJj4wUwwc-37">
          <mxGeometry relative="1" as="geometry">
            <mxPoint x="158" y="580" as="sourcePoint" />
          </mxGeometry>
        </mxCell>
        <mxCell id="zObjcB0tpamJJj4wUwwc-43" style="edgeStyle=orthogonalEdgeStyle;rounded=0;orthogonalLoop=1;jettySize=auto;html=1;" edge="1" parent="1" source="zObjcB0tpamJJj4wUwwc-3" target="zObjcB0tpamJJj4wUwwc-42">
          <mxGeometry relative="1" as="geometry" />
        </mxCell>
        <mxCell id="zObjcB0tpamJJj4wUwwc-3" value="PEDIDO" style="rounded=0;whiteSpace=wrap;html=1;" vertex="1" parent="1">
          <mxGeometry x="102" y="580" width="120" height="60" as="geometry" />
        </mxCell>
        <mxCell id="zObjcB0tpamJJj4wUwwc-31" style="edgeStyle=orthogonalEdgeStyle;rounded=0;orthogonalLoop=1;jettySize=auto;html=1;exitX=1;exitY=0.5;exitDx=0;exitDy=0;" edge="1" parent="1" source="zObjcB0tpamJJj4wUwwc-5" target="zObjcB0tpamJJj4wUwwc-30">
          <mxGeometry relative="1" as="geometry" />
        </mxCell>
        <mxCell id="zObjcB0tpamJJj4wUwwc-38" value="" style="edgeStyle=orthogonalEdgeStyle;rounded=0;orthogonalLoop=1;jettySize=auto;html=1;" edge="1" parent="1" target="zObjcB0tpamJJj4wUwwc-37">
          <mxGeometry relative="1" as="geometry">
            <mxPoint x="158" y="400" as="sourcePoint" />
          </mxGeometry>
        </mxCell>
        <mxCell id="zObjcB0tpamJJj4wUwwc-5" value="VENDEDOR" style="swimlane;startSize=30;" vertex="1" parent="1">
          <mxGeometry x="72" y="240" width="166" height="160" as="geometry" />
        </mxCell>
        <mxCell id="zObjcB0tpamJJj4wUwwc-6" value="Código" style="text;html=1;align=left;verticalAlign=middle;resizable=0;points=[];autosize=1;strokeColor=none;fillColor=none;strokeWidth=0;spacingLeft=4;" vertex="1" parent="zObjcB0tpamJJj4wUwwc-5">
          <mxGeometry y="30" width="60" height="30" as="geometry" />
        </mxCell>
        <mxCell id="zObjcB0tpamJJj4wUwwc-7" value="Nome" style="text;html=1;align=left;verticalAlign=middle;resizable=0;points=[];autosize=1;strokeColor=none;fillColor=none;spacingLeft=4;" vertex="1" parent="zObjcB0tpamJJj4wUwwc-5">
          <mxGeometry y="60" width="60" height="30" as="geometry" />
        </mxCell>
        <mxCell id="zObjcB0tpamJJj4wUwwc-8" value="Endereço" style="text;html=1;align=left;verticalAlign=middle;resizable=0;points=[];autosize=1;strokeColor=none;fillColor=none;spacingLeft=4;" vertex="1" parent="zObjcB0tpamJJj4wUwwc-5">
          <mxGeometry y="90" width="80" height="30" as="geometry" />
        </mxCell>
        <mxCell id="zObjcB0tpamJJj4wUwwc-9" value="Comissão" style="text;html=1;align=left;verticalAlign=middle;resizable=0;points=[];autosize=1;strokeColor=none;fillColor=none;spacingLeft=4;" vertex="1" parent="zObjcB0tpamJJj4wUwwc-5">
          <mxGeometry y="120" width="80" height="30" as="geometry" />
        </mxCell>
        <mxCell id="zObjcB0tpamJJj4wUwwc-32" style="edgeStyle=orthogonalEdgeStyle;rounded=0;orthogonalLoop=1;jettySize=auto;html=1;" edge="1" parent="1" source="zObjcB0tpamJJj4wUwwc-21" target="zObjcB0tpamJJj4wUwwc-30">
          <mxGeometry relative="1" as="geometry">
            <mxPoint x="460" y="320" as="targetPoint" />
          </mxGeometry>
        </mxCell>
        <mxCell id="zObjcB0tpamJJj4wUwwc-21" value="CLIENTE" style="swimlane;spacingLeft=4;" vertex="1" parent="1">
          <mxGeometry x="581" y="235" width="170" height="170" as="geometry" />
        </mxCell>
        <mxCell id="zObjcB0tpamJJj4wUwwc-12" value="Código" style="text;strokeColor=none;fillColor=none;align=left;verticalAlign=top;spacingLeft=4;spacingRight=4;overflow=hidden;rotatable=0;points=[[0,0.5],[1,0.5]];portConstraint=eastwest;whiteSpace=wrap;html=1;" vertex="1" parent="zObjcB0tpamJJj4wUwwc-21">
          <mxGeometry y="24" width="140" height="26" as="geometry" />
        </mxCell>
        <mxCell id="zObjcB0tpamJJj4wUwwc-13" value="Nome" style="text;strokeColor=none;fillColor=none;align=left;verticalAlign=top;spacingLeft=4;spacingRight=4;overflow=hidden;rotatable=0;points=[[0,0.5],[1,0.5]];portConstraint=eastwest;whiteSpace=wrap;html=1;" vertex="1" parent="zObjcB0tpamJJj4wUwwc-21">
          <mxGeometry y="51" width="140" height="26" as="geometry" />
        </mxCell>
        <mxCell id="zObjcB0tpamJJj4wUwwc-23" value="Limite Cliente" style="text;html=1;align=left;verticalAlign=middle;resizable=0;points=[];autosize=1;strokeColor=none;fillColor=none;spacingLeft=4;" vertex="1" parent="zObjcB0tpamJJj4wUwwc-21">
          <mxGeometry y="106" width="100" height="30" as="geometry" />
        </mxCell>
        <mxCell id="zObjcB0tpamJJj4wUwwc-24" value="Nome Vendedor" style="text;html=1;align=left;verticalAlign=middle;resizable=0;points=[];autosize=1;strokeColor=none;fillColor=none;spacingLeft=4;" vertex="1" parent="zObjcB0tpamJJj4wUwwc-21">
          <mxGeometry y="135" width="110" height="30" as="geometry" />
        </mxCell>
        <mxCell id="zObjcB0tpamJJj4wUwwc-14" value="Fatura" style="text;strokeColor=none;fillColor=none;align=left;verticalAlign=top;spacingLeft=4;spacingRight=4;overflow=hidden;rotatable=0;points=[[0,0.5],[1,0.5]];portConstraint=eastwest;whiteSpace=wrap;html=1;" vertex="1" parent="zObjcB0tpamJJj4wUwwc-21">
          <mxGeometry y="78" width="140" height="32" as="geometry" />
        </mxCell>
        <mxCell id="zObjcB0tpamJJj4wUwwc-44" style="edgeStyle=orthogonalEdgeStyle;rounded=0;orthogonalLoop=1;jettySize=auto;html=1;" edge="1" parent="1" source="zObjcB0tpamJJj4wUwwc-25" target="zObjcB0tpamJJj4wUwwc-42">
          <mxGeometry relative="1" as="geometry" />
        </mxCell>
        <mxCell id="zObjcB0tpamJJj4wUwwc-25" value="PEÇA" style="swimlane;startSize=30;" vertex="1" parent="1">
          <mxGeometry x="480" y="530" width="166" height="160" as="geometry" />
        </mxCell>
        <mxCell id="zObjcB0tpamJJj4wUwwc-26" value="Código" style="text;html=1;align=left;verticalAlign=middle;resizable=0;points=[];autosize=1;strokeColor=none;fillColor=none;strokeWidth=0;spacingLeft=4;" vertex="1" parent="zObjcB0tpamJJj4wUwwc-25">
          <mxGeometry y="30" width="60" height="30" as="geometry" />
        </mxCell>
        <mxCell id="zObjcB0tpamJJj4wUwwc-27" value="Preço" style="text;html=1;align=left;verticalAlign=middle;resizable=0;points=[];autosize=1;strokeColor=none;fillColor=none;spacingLeft=4;" vertex="1" parent="zObjcB0tpamJJj4wUwwc-25">
          <mxGeometry y="60" width="60" height="30" as="geometry" />
        </mxCell>
        <mxCell id="zObjcB0tpamJJj4wUwwc-28" value="Descrição" style="text;html=1;align=left;verticalAlign=middle;resizable=0;points=[];autosize=1;strokeColor=none;fillColor=none;spacingLeft=4;" vertex="1" parent="zObjcB0tpamJJj4wUwwc-25">
          <mxGeometry y="90" width="80" height="30" as="geometry" />
        </mxCell>
        <mxCell id="zObjcB0tpamJJj4wUwwc-29" value="Quantidade" style="text;html=1;align=left;verticalAlign=middle;resizable=0;points=[];autosize=1;strokeColor=none;fillColor=none;spacingLeft=4;" vertex="1" parent="zObjcB0tpamJJj4wUwwc-25">
          <mxGeometry y="120" width="90" height="30" as="geometry" />
        </mxCell>
        <mxCell id="zObjcB0tpamJJj4wUwwc-30" value="ATENDE" style="rhombus;whiteSpace=wrap;html=1;" vertex="1" parent="1">
          <mxGeometry x="348" y="280" width="110" height="80" as="geometry" />
        </mxCell>
        <mxCell id="zObjcB0tpamJJj4wUwwc-35" value="&lt;font style=&quot;font-size: 20px;&quot;&gt;&lt;b&gt;1,1&lt;/b&gt;&lt;/font&gt;" style="text;html=1;strokeColor=none;fillColor=none;align=center;verticalAlign=middle;whiteSpace=wrap;rounded=0;" vertex="1" parent="1">
          <mxGeometry x="250" y="280" width="60" height="30" as="geometry" />
        </mxCell>
        <mxCell id="zObjcB0tpamJJj4wUwwc-36" value="&lt;font style=&quot;font-size: 20px;&quot;&gt;&lt;b&gt;N,1&lt;/b&gt;&lt;/font&gt;" style="text;html=1;strokeColor=none;fillColor=none;align=center;verticalAlign=middle;whiteSpace=wrap;rounded=0;" vertex="1" parent="1">
          <mxGeometry x="490" y="280" width="60" height="30" as="geometry" />
        </mxCell>
        <mxCell id="zObjcB0tpamJJj4wUwwc-37" value="FAZ" style="rhombus;whiteSpace=wrap;html=1;" vertex="1" parent="1">
          <mxGeometry x="103" y="450" width="110" height="80" as="geometry" />
        </mxCell>
        <mxCell id="zObjcB0tpamJJj4wUwwc-40" value="&lt;font style=&quot;font-size: 20px;&quot;&gt;&lt;b&gt;1,1&lt;/b&gt;&lt;/font&gt;" style="text;html=1;strokeColor=none;fillColor=none;align=center;verticalAlign=middle;whiteSpace=wrap;rounded=0;" vertex="1" parent="1">
          <mxGeometry x="158" y="410" width="60" height="30" as="geometry" />
        </mxCell>
        <mxCell id="zObjcB0tpamJJj4wUwwc-41" value="&lt;font style=&quot;font-size: 20px;&quot;&gt;&lt;b&gt;N,1&lt;/b&gt;&lt;/font&gt;" style="text;html=1;strokeColor=none;fillColor=none;align=center;verticalAlign=middle;whiteSpace=wrap;rounded=0;" vertex="1" parent="1">
          <mxGeometry x="158" y="535" width="60" height="30" as="geometry" />
        </mxCell>
        <mxCell id="zObjcB0tpamJJj4wUwwc-42" value="FAZ" style="rhombus;whiteSpace=wrap;html=1;" vertex="1" parent="1">
          <mxGeometry x="290" y="570" width="110" height="80" as="geometry" />
        </mxCell>
      </root>
    </mxGraphModel>
  </diagram>
</mxfile>
